<?xml version="1.0" encoding="UTF-8" standalone="no"?>
<!-- Created with Inkscape (http://www.inkscape.org/) -->

<svg
   xmlns:dc="http://purl.org/dc/elements/1.1/"
   xmlns:cc="http://creativecommons.org/ns#"
   xmlns:rdf="http://www.w3.org/1999/02/22-rdf-syntax-ns#"
   xmlns:svg="http://www.w3.org/2000/svg"
   xmlns="http://www.w3.org/2000/svg"
   xmlns:sodipodi="http://sodipodi.sourceforge.net/DTD/sodipodi-0.dtd"
   xmlns:inkscape="http://www.inkscape.org/namespaces/inkscape"
   width="311.99988"
   height="92.000153"
   viewBox="0 0 82.549964 24.341706"
   version="1.1"
   id="svg3174"
   inkscape:version="0.92.0 r15299"
   sodipodi:docname="ynap.svg">
  <defs
     id="defs3168">
    <style
       id="style2">.cls-1 { fill: #000; fill-rule: evenodd; }</style>
  </defs>
  <sodipodi:namedview
     id="base"
     pagecolor="#ffffff"
     bordercolor="#666666"
     borderopacity="1.0"
     inkscape:pageopacity="0.0"
     inkscape:pageshadow="2"
     inkscape:zoom="2.8935497"
     inkscape:cx="154.99993"
     inkscape:cy="45.000076"
     inkscape:document-units="mm"
     inkscape:current-layer="layer1"
     showgrid="false"
     fit-margin-top="0"
     fit-margin-left="0"
     fit-margin-right="0"
     fit-margin-bottom="0"
     units="px"
     inkscape:window-width="1280"
     inkscape:window-height="744"
     inkscape:window-x="-4"
     inkscape:window-y="-4"
     inkscape:window-maximized="1" />
  <metadata
     id="metadata3171">
    <rdf:RDF>
      <cc:Work
         rdf:about="">
        <dc:format>image/svg+xml</dc:format>
        <dc:type
           rdf:resource="http://purl.org/dc/dcmitype/StillImage" />
        <dc:title></dc:title>
      </cc:Work>
    </rdf:RDF>
  </metadata>
  <g
     inkscape:label="Layer 1"
     inkscape:groupmode="layer"
     id="layer1"
     transform="translate(149.86752,-258.86221)">
    <path
       d="m -70.60709,271.05522 c 1.349613,0.13887 1.638437,0.65054 1.778071,1.65634 l 0.05575,0.40015 c 0.148659,0.87357 0.307935,1.05944 1.19113,1.05944 v 0.0743 c -0.307406,0.0558 -0.651711,0.0823 -0.958321,0.0823 -0.819483,0 -0.986459,-0.40094 -1.089723,-1.23734 l -0.101676,-0.83906 c -0.112025,-0.93199 -0.391292,-1.14441 -1.498801,-1.14441 h -0.913194 v 2.4561 c 0,0.45405 0.11946,0.60274 1.051232,0.63195 v 0.085 h -2.941325 v -0.085 c 0.9477,-0.0292 1.099016,-0.18587 1.099016,-0.64257 v -5.03939 c 0,-0.44741 -0.148659,-0.61416 -1.099016,-0.64257 v -0.0743 h 2.707719 c 1.712235,0 2.670556,0.61443 2.670556,1.58253 0,0.83773 -0.57871,1.43277 -1.956461,1.64731 v 0.0279 z m 1.051234,-1.66617 c 0,-0.97978 -0.445447,-1.45241 -1.814438,-1.45241 h -0.772496 v 3.03255 h 0.883989 c 1.396865,0 1.70321,-0.53981 1.70321,-1.58173 z m -8.382518,-1.45241 h -1.571541 v 2.90218 h 0.886646 c 0.679585,0 0.921157,-0.25225 1.162727,-1.27452 h 0.08495 v 2.70038 h -0.08495 c -0.24157,-1.02492 -0.483142,-1.28513 -1.162727,-1.28513 h -0.883992 v 3.16505 h 1.733474 c 0.976902,0 1.322003,-0.46733 1.831691,-1.89054 l 0.08495,0.008 -0.04513,2.01799 h -5.495078 v -0.085 c 0.949029,-0.0265 1.099016,-0.18587 1.099016,-0.64257 v -5.03942 c 0,-0.44608 -0.149987,-0.61336 -1.099016,-0.64257 v -0.0733 h 5.22351 l 0.02655,1.90779 -0.08389,0.0106 c -0.493761,-1.33824 -0.80966,-1.77636 -1.704272,-1.77636 z m -6.564895,0 h -0.743296 v 5.61849 c 0,0.46467 0.204406,0.61337 1.173345,0.64257 v 0.0823 h -3.137771 v -0.085 c 0.968941,-0.0292 1.173345,-0.1779 1.173345,-0.64257 v -5.61557 h -0.743294 c -0.671621,0 -1.061852,0.38129 -1.637905,1.74078 l -0.08229,-0.01 0.05575,-1.87195 h 5.611881 l 0.05761,1.86929 -0.08362,0.008 c -0.567303,-1.32236 -0.95833,-1.74189 -1.637915,-1.74189 z m -8.022553,3.11752 c 1.350677,0.13887 1.63897,0.65053 1.777807,1.65634 l 0.05575,0.40041 c 0.148659,0.87437 0.307938,1.05997 1.190866,1.05997 v 0.0743 c -0.306874,0.0566 -0.651179,0.0836 -0.958318,0.0836 -0.818954,0 -0.986462,-0.39988 -1.089462,-1.23681 l -0.103529,-0.83799 c -0.111495,-0.92934 -0.392885,-1.14441 -1.499864,-1.14441 h -0.913194 v 2.4561 c 0,0.45404 0.11946,0.60274 1.051235,0.63194 v 0.085 h -2.935753 v -0.085 c 0.949293,-0.0292 1.097952,-0.18586 1.097952,-0.64256 V 268.513 c 0,-0.44768 -0.148659,-0.61442 -1.097952,-0.64257 v -0.0743 h 2.70851 c 1.712236,0 2.671617,0.61416 2.671617,1.582 0,0.83799 -0.577646,1.43303 -1.955133,1.64758 v 0.0276 z m 1.051235,-1.66617 c 0,-0.97766 -0.445979,-1.45242 -1.813907,-1.45242 h -0.773295 v 3.03362 h 0.884523 c 1.396334,0 1.702412,-0.53955 1.702412,-1.58146 z m -8.826633,5.05293 c -1.60127,0 -3.07141,-1.32098 -3.07141,-3.38703 0,-2.05781 1.53597,-3.4173 3.08043,-3.4173 1.591715,0 3.063441,1.31169 3.063441,3.38544 0,2.04719 -1.53703,3.41464 -3.072201,3.41464 z m -0.0273,-6.67263 c -1.21131,0 -2.12371,0.73551 -2.12371,3.26702 0,2.53044 0.95912,3.27391 2.17839,3.27391 1.21051,0 2.122108,-0.74612 2.122108,-3.26595 0,-2.54107 -0.95832,-3.27657 -2.176788,-3.27657 z m -7.25324,3.60184 h -0.68012 v 2.1866 c 0,0.47582 0.17574,0.61548 1.15477,0.64257 v 0.0836 h -3.04486 v -0.0836 c 0.95035,-0.0271 1.09981,-0.18587 1.09981,-0.64257 v -5.04311 c 0,-0.44608 -0.14946,-0.61336 -1.09981,-0.64204 v -0.0738 h 2.63551 c 1.80515,0 2.56915,0.75355 2.56915,1.7498 0,0.93996 -0.76347,1.82309 -2.63419,1.82309 z m 1.73082,-1.81433 c 0,-0.93039 -0.30794,-1.6197 -1.65649,-1.6197 h -0.75445 v 3.2941 h 0.72631 c 1.39766,0 1.68489,-0.63195 1.68489,-1.67466 z m -8.77143,2.05676 h 2.3828 v 0.14869 h -2.38253 v -0.14869 z m -2.15715,1.58173 c 0.29732,0.80082 0.40935,0.93995 1.14415,1.00474 v 0.085 h -2.76427 v -0.085 c 0.95832,-0.0364 1.03345,-0.2318 0.81922,-0.8279 l -0.58667,-1.61015 h -2.31749 l -0.38227,0.99572 c -0.43005,1.10724 -0.32652,1.34887 0.61322,1.4418 v 0.085 h -2.13167 v -0.085 c 0.63977,-0.11152 0.88134,-0.36271 1.32201,-1.46092 l 2.04672,-5.14586 h 0.13007 l 2.10247,5.60257 z m -2.48606,-4.49427 h -0.0266 l -1.13353,2.9128 h 2.21662 l -1.05123,-2.9128 z m -5.08918,-3.01211 c 0.94849,-0.0467 0.96814,-0.29792 0.65967,-0.78171 l -1.33953,-2.14012 -1.22909,1.77715 c -0.54154,0.78064 -0.3743,1.07803 0.47253,1.14441 v 0.0823 h -2.32546 v -0.085 c 0.72472,-0.0929 0.92912,-0.20446 1.70162,-1.29576 l 1.2636,-1.78433 -1.57154,-2.41892 c -0.39262,-0.6131 -0.54128,-0.72462 -1.33236,-0.82817 v -0.0744 h 2.867 v 0.0744 c -0.90257,0.0372 -0.96894,0.3165 -0.661,0.80931 l 1.20255,1.8985 1.07884,-1.55331 c 0.5495,-0.78994 0.37244,-1.08865 -0.47465,-1.15318 v -0.0743 h 2.32705 v 0.0743 c -0.7433,0.10276 -0.93974,0.23287 -1.70428,1.30293 l -1.11759,1.5727 1.71382,2.62471 c 0.40085,0.62398 0.55031,0.72754 1.32201,0.82844 v 0.0844 h -2.85319 v -0.0834 z m -7.39049,0.24163 c -1.60127,0 -3.0714,-1.32099 -3.0714,-3.3873 -5.3e-4,-2.05728 1.53384,-3.41544 3.08149,-3.41544 1.59065,0 3.06132,1.31169 3.06132,3.38809 0,2.04719 -1.53624,3.41465 -3.07247,3.41465 z m 2.15025,-3.39686 c -5.3e-4,-2.54027 -0.95885,-3.27577 -2.17945,-3.27577 -1.20945,0 -2.12211,0.7355 -2.12211,3.26701 0,2.53177 0.95885,3.27577 2.17812,3.27577 1.21051,0 2.12371,-0.74346 2.12371,-3.26595 z m -7.96972,5.40422 h -1.5742 v 2.90378 h 0.88399 c 0.67959,0 0.92116,-0.25145 1.16353,-1.27452 h 0.0849 v 2.69879 h -0.0823 c -0.24158,-1.02413 -0.48315,-1.28434 -1.16274,-1.28434 h -0.88399 v 3.16425 h 1.73082 c 0.9769,0 1.322,-0.46626 1.83435,-1.88947 l 0.085,0.01 -0.0451,2.01852 h -5.49535 v -0.0836 c 0.94983,-0.0271 1.09822,-0.18587 1.09822,-0.64257 v -5.04368 c 0,-0.44608 -0.14866,-0.61336 -1.09822,-0.64204 v -0.0738 h 5.22166 l 0.0266,1.90779 -0.0849,0.0106 c -0.49377,-1.33824 -0.80967,-1.77636 -1.70162,-1.77636 z m -2.02947,-2.00736 c -1.59994,0 -3.07034,-1.32099 -3.07034,-3.3873 0,-2.05728 1.5357,-3.41544 3.0807,-3.41544 1.59224,0 3.06291,1.31169 3.06291,3.38809 0,2.04719 -1.5365,3.41465 -3.07327,3.41465 z m 2.15211,-3.39659 c 0,-2.54054 -0.95991,-3.27604 -2.17865,-3.27604 -1.21051,0 -2.12211,0.7355 -2.12211,3.26701 0,2.53177 0.95566,3.27577 2.17679,3.27577 1.20786,0 2.12105,-0.74346 2.12105,-3.26595 z m -8.61427,0.28942 v 2.22297 c 0,0.46573 0.24264,0.6054 1.12663,0.63301 v 0.0929 h -3.0353 v -0.0834 c 0.96893,-0.0279 1.12662,-0.17684 1.12662,-0.64257 v -2.05649 l -1.62835,-2.81987 c -0.3451,-0.58601 -0.53093,-0.73497 -1.13618,-0.80985 v -0.073 h 2.75471 v 0.0738 c -0.98673,0.0372 -1.03265,0.26101 -0.69737,0.83773 l 1.38704,2.47628 1.27555,-2.19854 c 0.46535,-0.80189 0.42739,-1.01431 -0.50358,-1.11786 v -0.0741 h 2.15077 v 0.0744 c -0.69816,0.0844 -0.93973,0.29818 -1.47146,1.18158 l -1.34855,2.28085 z m -2.02707,5.96155 c 0,-0.50237 -0.25219,-0.85605 -1.12716,-0.91234 v -0.0743 h 1.7494 l 3.85452,5.22021 h 0.01 v -4.06571 c 0,-0.71639 -0.2052,-0.94952 -1.18211,-1.07963 v -0.0743 h 2.42102 v 0.0743 c -0.92115,0.1402 -1.06981,0.37306 -1.06981,1.07989 v 5.49105 h -0.13008 l -4.33792,-5.85482 h -0.0186 v 4.5333 c 0,0.71559 0.15848,0.94846 1.15397,1.07962 v 0.0839 h -2.45022 v -0.0836 c 0.9408,-0.1309 1.12742,-0.36377 1.12742,-1.07936 z m 2.35465,7.34972 c 0.69817,0 1.20149,0.13011 1.73188,0.38156 l 0.39023,-0.43732 h 0.065 v 2.0472 h -0.0839 c -0.64189,-1.45163 -1.21051,-1.86133 -2.16884,-1.86133 -1.15423,0 -2.28032,0.83799 -2.28032,3.24816 0,2.40087 1.27502,3.29463 2.42951,3.29463 0.58668,0 1.06982,-0.16728 1.38572,-0.40891 v -1.77636 c 0,-0.45405 -0.15928,-0.64257 -1.09902,-0.66912 v -0.0823 h 2.67321 v 0.085 c -0.69816,0.0372 -0.79373,0.1779 -0.79373,0.66116 v 1.71263 c -0.6318,0.38766 -1.47066,0.6107 -2.13963,0.6107 -1.74144,0 -3.37934,-1.163 -3.37934,-3.40668 0,-2.02861 1.61136,-3.39606 3.26785,-3.39606 z m 9.674,1.74078 c 0,0.83693 -0.57712,1.4325 -1.95514,1.64625 v 0.0287 c 1.35121,0.13914 1.64056,0.65107 1.77861,1.65634 l 0.0557,0.39988 c 0.15131,0.87517 0.30793,1.06077 1.19192,1.06077 v 0.0744 c -0.30793,0.0563 -0.65038,0.0836 -0.95832,0.0836 -0.81762,0 -0.98486,-0.39935 -1.08839,-1.23734 l -0.10088,-0.83773 c -0.11149,-0.93013 -0.39023,-1.14441 -1.49721,-1.14441 h -0.91319 v 2.45663 c 0,0.45617 0.12211,0.60487 1.05388,0.63328 v 0.0836 h -2.94664 v -0.0836 c 0.95036,-0.0284 1.09902,-0.18587 1.09902,-0.64257 v -5.04391 c 0,-0.44661 -0.14866,-0.61389 -1.09902,-0.64257 v -0.0744 h 2.70773 c 1.71356,0 2.67267,0.61469 2.67267,1.58306 z m -3.49084,-1.44339 v 3.03494 h 0.88399 c 1.39687,0 1.70427,-0.5406 1.70427,-1.58252 0,-0.97713 -0.44703,-1.45242 -1.81523,-1.45242 z m 8.87389,-0.29739 c 1.59119,0 3.06265,1.31275 3.06265,3.3873 0,2.04772 -1.53438,3.41624 -3.07141,3.41624 -1.60074,0 -3.0714,-1.32232 -3.0714,-3.3881 0,-2.05675 1.53703,-3.4157 3.08202,-3.4157 z m -2.16033,3.39606 c 0,2.53124 0.95832,3.27657 2.17865,3.27657 1.21051,0 2.12211,-0.74533 2.12211,-3.26701 0,-2.54001 -0.95912,-3.27551 -2.17865,-3.27551 -1.21051,0 -2.12211,0.7355 -2.12211,3.26595 z m 9.1497,-7.76818 h -2.38306 v -0.1487 h 2.38306 z m -6.59409,1.79494 c 0,0.46626 0.2052,0.61602 1.17228,0.64257 v 0.0839 h -3.1375 v -0.0836 c 0.96814,-0.0271 1.17334,-0.17657 1.17334,-0.64257 v -5.61983 h -0.74489 c -0.67109,0 -1.06132,0.38129 -1.63843,1.74078 l -0.0841,-0.01 0.0557,-1.87195 h 5.61321 l 0.0568,1.86929 -0.0836,0.008 c -0.5681,-1.32236 -0.96098,-1.74189 -1.63791,-1.74189 h -0.74596 v 5.62115 z m 6.88345,2.80925 c -0.93178,0.0281 -1.02469,0.1864 -1.02469,0.63301 v 3.65733 c 0,1.50765 0.81046,2.01002 1.96443,2.01002 0.53012,0 0.9408,-0.13966 1.24767,-0.43731 0.34377,-0.34412 0.55827,-0.80985 0.55827,-1.56341 v -3.21922 c 0,-0.71692 -0.20441,-0.94978 -1.19193,-1.08069 v -0.0744 h 2.42022 v 0.0744 c -0.92168,0.14073 -1.06132,0.3728 -1.06132,1.08069 v 3.28454 c 0,1.30266 -0.77356,2.19642 -2.30819,2.19642 -1.50836,0 -2.42102,-0.69833 -2.42102,-2.06579 v -3.85275 c 0,-0.44688 -0.15742,-0.61416 -1.09743,-0.64257 v -0.0744 h 2.91399 v 0.0744 z m 10.29119,1.67546 c 0,0.93943 -0.76453,1.82336 -2.63445,1.82336 h -0.67959 v 2.18792 c 0,0.47529 0.17627,0.61336 1.15424,0.64257 v 0.085 h -3.04406 v -0.0823 c 0.94982,-0.0265 1.09954,-0.18587 1.09954,-0.63992 v -5.04496 c 0,-0.44608 -0.15131,-0.61336 -1.10167,-0.64098 v -0.0743 h 2.63339 c 1.80515,0 2.56703,0.75409 2.56703,1.74981 z m -3.31404,1.68422 h 0.72578 c 1.3974,0 1.68463,-0.63327 1.68463,-1.67546 0,-0.93066 -0.30688,-1.6197 -1.65649,-1.6197 h -0.75392 z"
       class="cls-1"
       id="path6"
       style="fill:#000000;fill-rule:evenodd;stroke-width:0.26549363"
       inkscape:connector-curvature="0" />
  </g>
</svg>
